<mxfile host="app.diagrams.net" modified="2023-08-30T06:19:58.213Z" agent="Mozilla/5.0 (Macintosh; Intel Mac OS X 10_15_7) AppleWebKit/537.36 (KHTML, like Gecko) Chrome/116.0.0.0 Safari/537.36" version="21.7.0" etag="AGFa5IqCXqqysMMCzHhF" type="github">
  <diagram name="第 1 页" id="YuwZoH2QNjP8np4x9N1s">
    <mxGraphModel>
      <root>
        <mxCell id="0" />
        <mxCell id="1" parent="0" />
      </root>
    </mxGraphModel>
  </diagram>
</mxfile>
